<svg xmlns="http://www.w3.org/2000/svg" x="0px" y="0px" width="64" height="64" viewBox="0 0 64 64">
    <path fill="#37d0ee"
          d="M46.41,50.119l9.572,2.815c1.197,0.352,2.309-0.76,1.957-1.957l-2.815-9.572L46.41,50.119z"></path>
    <ellipse cx="32" cy="61" opacity=".3" rx="19" ry="3"></ellipse>
    <ellipse cx="26.5" cy="25.04" fill="#98c900" rx="20.5" ry="18.04"></ellipse>
    <path fill="#fff"
          d="M26.5,7C15.178,7,6,15.077,6,25.04c0,1.708,0.288,3.354,0.792,4.92	C9.174,29.578,11,27.53,11,25.04C11,17.85,17.953,12,26.5,12c2.573,0,4.667-1.951,4.945-4.45C29.858,7.204,28.208,7,26.5,7z"
          opacity=".3"></path>
    <path fill="#98c900" d="M20,40.769L9.268,43.926c-1.342,0.395-2.588-0.852-2.194-2.194L10.231,31L20,40.769z"></path>
    <ellipse cx="40" cy="36" fill="#37d0ee" rx="18" ry="16"></ellipse>
    <circle cx="19.5" cy="18.5" r="2.5" fill="#548500"></circle>
    <circle cx="33.5" cy="18.5" r="2.5" fill="#548500"></circle>
    <circle cx="32.5" cy="32.5" r="2.5" fill="#008aa9"></circle>
    <circle cx="46.5" cy="32.5" r="2.5" fill="#008aa9"></circle>
    <path fill="none" stroke="#fff" stroke-linecap="round" stroke-linejoin="round" stroke-miterlimit="10"
          stroke-width="3" d="M12.891,16.335c1.709-1.95,3.977-3.522,6.598-4.54"></path>
    <path d="M57.938,50.977l-2.147-7.298C57.198,41.399,58,38.783,58,36c0-1.715-0.311-3.363-0.873-4.912	C54.784,31.502,53,33.538,53,36c0,6.065-5.832,11-13,11c-2.547,0-4.627,1.912-4.937,4.376C36.634,51.774,38.286,52,40,52	c2.73,0,5.309-0.556,7.627-1.523l8.354,2.457C57.178,53.286,58.29,52.174,57.938,50.977z"
          opacity=".15"></path>
</svg>